HIERARCHY
ROOT Hips
{
  OFFSET 0 0 0
  CHANNELS 6 Xposition Yposition Zposition Zrotation Yrotation Xrotation
  JOINT LeftThigh
  {
    OFFSET 8.409438 0 -5.917753
    CHANNELS 3 Zrotation Yrotation Xrotation
    JOINT LeftLeg
    {
      OFFSET 0 0 -42.358652
      CHANNELS 3 Zrotation Yrotation Xrotation
      JOINT LeftFoot
      {
        OFFSET 0 0 -39.357303
        CHANNELS 3 Zrotation Yrotation Xrotation
      }
    }
  }
  JOINT RightThigh
  {
    OFFSET -8.409438 0 -5.917753
    CHANNELS 3 Zrotation Yrotation Xrotation
    JOINT RightLeg
    {
      OFFSET 0 0 -42.358652
      CHANNELS 3 Zrotation Yrotation Xrotation
      JOINT RightFoot
      {
        OFFSET 0 0 -39.357303
        CHANNELS 3 Zrotation Yrotation Xrotation
      }
    }
  }
  JOINT SpineLow
  {
    OFFSET 0 0 4.719101
    CHANNELS 3 Zrotation Yrotation Xrotation
    JOINT SpineMid
    {
      OFFSET 0 0 12.899191
      CHANNELS 3 Zrotation Yrotation Xrotation
      JOINT Chest
      {
        OFFSET 0 0 12.899191
        CHANNELS 3 Zrotation Yrotation Xrotation
        JOINT LeftShoulder
        {
          OFFSET 7.550562 1.41573 9.438202
          CHANNELS 3 Zrotation Yrotation Xrotation
          JOINT LeftArm
          {
            OFFSET 9.155056 0 4.247191
            CHANNELS 3 Zrotation Yrotation Xrotation
            JOINT LeftForearm
            {
              OFFSET 0 0 25.771955
              CHANNELS 3 Zrotation Yrotation Xrotation
              JOINT LeftHand
              {
                OFFSET 0 0 25.197169
                CHANNELS 3 Zrotation Yrotation Xrotation
              }
            }
          }
        }
        JOINT RightShoulder
        {
          OFFSET -7.550562 1.41573 9.438202
          CHANNELS 3 Zrotation Yrotation Xrotation
          JOINT RightArm
          {
            OFFSET -9.155056 0 4.247191
            CHANNELS 3 Zrotation Yrotation Xrotation
            JOINT RightForearm
            {
              OFFSET 0 0 -25.771955
              CHANNELS 3 Zrotation Yrotation Xrotation
              JOINT RightHand
              {
                OFFSET 0 0 -25.197169
                CHANNELS 3 Zrotation Yrotation Xrotation
              }
            }
          }
        }
        JOINT Neck
        {
          OFFSET 0 0 15.101124
          CHANNELS 3 Zrotation Yrotation Xrotation
          JOINT Head
          {
            OFFSET 0 0 11.325843
            CHANNELS 3 Zrotation Yrotation Xrotation
            End Site
            {
              OFFSET 0 0 14.157303
            }
          }
        }
      }
    }
  }
}
MOTION
Frames: 5
Frame Time: 0.0
0.0  101.685394  0.0  9.196476  34.030639  -88.161677  0.647949  -21.337482  30.838576  1.855409  12.082402  21.429856  -0.303462  4.9724  1.241198  -28.582344  8.110224  -50.76473  7.186559  12.62328  60.528941  21.124619  7.898544  2.708044  -9.319911  1.831595  -1.067422  -25.587834  4.512384  -3.572733  -25.587831  4.512384  -3.572733  8.929177  27.049524  19.456562  133.583665  46.051909  -172.848658  -53.654497  -33.417919  105.438633  63.905027  -15.537504  -10.009783  33.029991  -6.379615  30.869632  119.796199  55.273748  25.868279  -31.749609  9.182547  -90.649602  63.649029  26.234897  48.879763  6.955687  -3.141778  -2.295605  5.203735  -2.382858  -1.68574  
0.0  101.685394  0.0  9.017415  34.581903  -88.333999  -0.547905  -21.190332  30.703749  2.302321  12.159071  22.030584  -0.341729  5.275654  0.872724  -29.577481  8.016681  -51.112644  7.415336  12.485031  60.791364  21.184221  7.708776  2.691479  -9.343826  1.827067  -1.014936  -25.64975  4.518965  -3.431297  -25.649752  4.518965  -3.431297  8.740834  26.974418  19.340892  133.636163  45.620544  -173.103319  -53.502292  -33.201076  105.228856  64.136956  -15.225149  -9.93011  33.114891  -6.467292  31.081629  119.205953  55.064698  25.490702  -31.714453  9.286069  -90.713232  63.671822  26.1707  49.216269  6.700007  -3.262916  -2.063201  5.01269  -2.470183  -1.51139  
0.0  101.685394  0.0  8.814165  35.046726  -88.575498  -1.961794  -20.835125  30.673673  2.557966  12.487008  22.586118  -0.292002  5.481293  0.357636  -30.429653  8.007758  -51.366636  7.282152  12.406344  60.911453  21.437953  7.56496  2.789679  -9.366491  1.82113  -0.967267  -25.708412  4.520074  -3.302198  -25.708412  4.520074  -3.302198  8.706829  26.983879  19.291842  133.636044  45.232744  -173.466914  -53.341927  -32.976517  105.088389  64.329225  -14.83999  -9.820033  33.20662  -6.506705  31.411796  118.63949  54.875671  25.053006  -31.638175  9.372213  -90.852691  63.689798  26.126649  49.592628  6.478347  -3.347492  -1.872481  4.847167  -2.530825  -1.368621  
0.0  101.685394  0.0  8.574398  35.223943  -88.893982  -2.957123  -20.499186  30.762743  2.640941  13.097439  22.89452  -0.071807  5.396519  -0.002381  -30.985991  8.030417  -51.516759  7.214246  12.200018  61.069199  21.317433  7.41165  2.809231  -9.352751  1.818571  -0.924938  -25.66807  4.530281  -3.186481  -25.668071  4.530281  -3.18648  8.69524  26.997636  19.340392  133.530581  44.934558  -173.860805  -53.309104  -32.73419  104.975009  64.346568  -14.416864  -9.636275  33.242607  -6.566456  31.872189  118.229904  54.744853  24.693084  -31.547085  9.428526  -91.037345  63.636715  26.086389  49.912576  6.286173  -3.411513  -1.726562  4.703634  -2.576734  -1.259568  
0.0  101.685394  0.0  8.346324  35.096824  -89.185068  -3.23692  -20.370742  30.787461  2.322727  13.582689  23.143502  0.325513  5.449987  -0.271975  -31.273696  8.097809  -51.657491  6.926151  12.074536  61.084204  21.490296  7.275053  2.939821  -9.308877  1.811221  -0.891347  -25.545392  4.525833  -3.090463  -25.545394  4.525833  -3.090463  8.770806  27.063872  19.433022  133.55094  44.74507  -174.223132  -53.255828  -32.353394  105.006673  64.186023  -13.979391  -9.375664  33.210631  -6.598241  32.365187  118.093439  54.618836  24.430077  -31.466202  9.474246  -91.216493  63.548332  25.997225  50.123549  6.1489  -3.450374  -1.674244  4.60086  -2.604954  -1.220696  
